<?xml version="1.0" encoding="UTF-8"?>
<svg width="22px" height="32px" viewBox="0 0 22 32" version="1.1" xmlns="http://www.w3.org/2000/svg" xmlns:xlink="http://www.w3.org/1999/xlink">
    <!-- Generator: Sketch 43.2 (39069) - http://www.bohemiancoding.com/sketch -->
    <title>Page 1</title>
    <desc>Created with Sketch.</desc>
    <defs></defs>
    <g id="nito-iot-web-admin" stroke="none" stroke-width="1" fill="none" fill-rule="evenodd">
        <g id="UC001_デバイス一覧_パターン１無" transform="translate(-213.000000, -418.000000)" fill="#231F1F">
            <g id="Page-1" transform="translate(213.000000, 418.000000)">
                <path d="M0.664086687,18.3968164 C1.03066254,18.3968164 1.32817337,18.1027446 1.32817337,17.7404062 C1.32817337,12.5075036 5.63543963,8.25002667 10.9295387,8.25002667 C16.2236378,8.25002667 20.530904,12.5075036 20.530904,17.7404062 C20.530904,18.1027446 20.8284149,18.3968164 21.1949907,18.3968164 C21.5615666,18.3968164 21.8590774,18.1027446 21.8590774,17.7404062 C21.8590774,11.7828267 16.9567895,6.93720615 10.9295387,6.93720615 C4.90228793,6.93720615 0,11.7828267 0,17.7404062 C0,18.1027446 0.297510836,18.3968164 0.664086687,18.3968164" id="Fill-1"></path>
                <path d="M10.2791322,19.0756759 C9.91255635,19.0756759 9.61504551,19.3697477 9.61504551,19.7320862 L9.61504551,27.3503836 C9.61504551,29.6872041 11.5501941,31.5868554 13.9276245,31.5868554 C16.3581817,31.5868554 18.7449093,29.3747528 18.7449093,27.12064 C18.7449093,26.7583015 18.4473985,26.4642297 18.0808226,26.4642297 C17.7142467,26.4642297 17.4167359,26.7583015 17.4167359,27.12064 C17.4167359,28.6540144 15.6223737,30.2740349 13.9276245,30.2740349 C12.2820176,30.2740349 10.9432189,28.9625272 10.9432189,27.3503836 L10.9432189,19.7320862 C10.9432189,19.3697477 10.645708,19.0756759 10.2791322,19.0756759" id="Fill-3"></path>
                <path d="M2.43852632,4.39873641 L5.75364706,1.12062359 C6.01264087,0.86462359 6.01264087,0.448459487 5.75364706,0.192459487 C5.49465325,-0.0635405128 5.07362229,-0.0635405128 4.81462848,0.192459487 L1.49950774,3.47057231 C1.24051393,3.72657231 1.24051393,4.14273641 1.49950774,4.39873641 C1.62966873,4.52739282 1.79967492,4.59040821 1.96835294,4.59040821 C2.13835913,4.59040821 2.30836533,4.52739282 2.43852632,4.39873641" id="Fill-5"></path>
                <path d="M7.75121981,4.39873641 L11.0663406,1.12062359 C11.3253344,0.86462359 11.3253344,0.448459487 11.0663406,0.192459487 C10.8073467,-0.0635405128 10.3863158,-0.0635405128 10.127322,0.192459487 L6.81220124,3.47057231 C6.55320743,3.72657231 6.55320743,4.14273641 6.81220124,4.39873641 C6.94236223,4.52739282 7.11236842,4.59040821 7.28104644,4.59040821 C7.45105263,4.59040821 7.62105882,4.52739282 7.75121981,4.39873641" id="Fill-7"></path>
                <path d="M13.0639133,4.39873641 L16.3790341,1.12062359 C16.6380279,0.86462359 16.6380279,0.448459487 16.3790341,0.192459487 C16.1200402,-0.0635405128 15.6990093,-0.0635405128 15.4400155,0.192459487 L12.1248947,3.47057231 C11.8659009,3.72657231 11.8659009,4.14273641 12.1248947,4.39873641 C12.2550557,4.52739282 12.4250619,4.59040821 12.5937399,4.59040821 C12.7637461,4.59040821 12.9337523,4.52739282 13.0639133,4.39873641" id="Fill-9"></path>
                <path d="M18.3766068,4.39873641 L21.6917276,1.12062359 C21.9507214,0.86462359 21.9507214,0.448459487 21.6917276,0.192459487 C21.4327337,-0.0635405128 21.0117028,-0.0635405128 20.752709,0.192459487 L17.4375882,3.47057231 C17.1785944,3.72657231 17.1785944,4.14273641 17.4375882,4.39873641 C17.5677492,4.52739282 17.7377554,4.59040821 17.9064334,4.59040821 C18.0764396,4.59040821 18.2464458,4.52739282 18.3766068,4.39873641" id="Fill-11"></path>
            </g>
        </g>
    </g>
</svg>