<?xml version="1.0" encoding="UTF-8"?>
<svg width="61px" height="63px" viewBox="0 0 61 63" version="1.1" xmlns="http://www.w3.org/2000/svg" xmlns:xlink="http://www.w3.org/1999/xlink">
    <!-- Generator: Sketch 43.2 (39069) - http://www.bohemiancoding.com/sketch -->
    <title>Page 1</title>
    <desc>Created with Sketch.</desc>
    <defs></defs>
    <g id="nito-iot-web-admin" stroke="none" stroke-width="1" fill="none" fill-rule="evenodd" opacity="0.0956748188">
        <g id="UC001_デバイス一覧_パターン１無" transform="translate(-265.000000, -686.000000)" fill="#231F1F">
            <g id="Page-1" transform="translate(265.000000, 686.000000)">
                <g transform="translate(-19.000000, -17.000000)">
                    <path d="M40.4296774,21.5058065 C50.3909677,21.5058065 58.4941935,29.6090323 58.4941935,39.5703226 C58.4941935,49.5316129 50.3909677,57.6348387 40.4296774,57.6348387 C30.4683871,57.6348387 22.3651613,49.5316129 22.3651613,39.5703226 C22.3651613,29.6090323 30.4683871,21.5058065 40.4296774,21.5058065 M40.4296774,60.2154839 C51.8129032,60.2154839 61.0748387,50.9535484 61.0748387,39.5703226 C61.0748387,28.1870968 51.8129032,18.9251613 40.4296774,18.9251613 C29.0464516,18.9251613 19.7845161,28.1870968 19.7845161,39.5703226 C19.7845161,50.9535484 29.0464516,60.2154839 40.4296774,60.2154839" id="Fill-1"></path>
                    <path d="M40,78.7096774 L40,68.3870968 C40,67.6748387 39.4219355,67.0967742 38.7096774,67.0967742 C37.9974194,67.0967742 37.4193548,67.6748387 37.4193548,68.3870968 L37.4193548,78.7096774 C37.4193548,79.4219355 37.9974194,80 38.7096774,80 C39.4219355,80 40,79.4219355 40,78.7096774" id="Fill-5"></path>
                    <path d="M78.7096774,40 L68.3870968,40 C67.6748387,40 67.0967742,40.5780645 67.0967742,41.2903226 C67.0967742,42.0025806 67.6748387,42.5806452 68.3870968,42.5806452 L78.7096774,42.5806452 C79.4219355,42.5806452 80,42.0025806 80,41.2903226 C80,40.5780645 79.4219355,40 78.7096774,40" id="Fill-9"></path>
                    <path d="M14.4002581,67.8541935 L21.7009032,60.5535484 C22.204129,60.0503226 22.204129,59.2348387 21.7009032,58.7290323 C21.1950968,58.2258065 20.3796129,58.2258065 19.8763871,58.7290323 L12.5757419,66.0296774 C12.0725161,66.5329032 12.0725161,67.3509677 12.5757419,67.8541935 C12.8286452,68.1070968 13.1589677,68.2309677 13.4867097,68.2309677 C13.8170323,68.2309677 14.1473548,68.1070968 14.4002581,67.8541935" id="Fill-11"></path>
                    <path d="M60.9323871,20.7876129 C61.2627097,20.7876129 61.5930323,20.6611613 61.8459355,20.4108387 L69.144,13.1101935 C69.6498065,12.6069677 69.6498065,11.7889032 69.144,11.2856774 C68.6407742,10.7824516 67.8227097,10.7824516 67.3194839,11.2856774 L60.0188387,18.5837419 C59.5156129,19.0895484 59.5156129,19.9050323 60.0188387,20.4108387 C60.2717419,20.6611613 60.6020645,20.7876129 60.9323871,20.7876129" id="Fill-13"></path>
                    <path d="M61.8446452,58.7298065 C61.3414194,58.2265806 60.5233548,58.2265806 60.020129,58.7298065 C59.5169032,59.2330323 59.5169032,60.0510968 60.020129,60.5543226 L67.3207742,67.8549677 C67.5710968,68.1052903 67.9014194,68.2317419 68.2317419,68.2317419 C68.5620645,68.2317419 68.8923871,68.1052903 69.1452903,67.8549677 C69.6485161,67.3491613 69.6485161,66.5336774 69.1452903,66.0304516 L61.8446452,58.7298065 Z" id="Fill-15"></path>
                    <path d="M19.8753548,20.4095484 C20.1282581,20.6624516 20.4585806,20.7863226 20.7889032,20.7863226 C21.1166452,20.7863226 21.4469677,20.6624516 21.699871,20.4095484 C22.2030968,19.9063226 22.2030968,19.0882581 21.699871,18.5850323 L14.3992258,11.2843871 C13.896,10.7811613 13.0805161,10.7811613 12.5747097,11.2843871 C12.0714839,11.7901935 12.0714839,12.6056774 12.5747097,13.1089032 L19.8753548,20.4095484 Z" id="Fill-17"></path>
                </g>
            </g>
        </g>
    </g>
</svg>