<?xml version="1.0" encoding="UTF-8"?>
<svg width="56px" height="50px" viewBox="0 0 56 50" version="1.1" xmlns="http://www.w3.org/2000/svg" xmlns:xlink="http://www.w3.org/1999/xlink">
    <!-- Generator: Sketch 43.2 (39069) - http://www.bohemiancoding.com/sketch -->
    <title>Group</title>
    <desc>Created with Sketch.</desc>
    <defs></defs>
    <g id="nito-iot-web-admin" stroke="none" stroke-width="1" fill="none" fill-rule="evenodd" opacity="0.102241848">
        <g id="UC001_デバイス一覧_パターン１無" transform="translate(-188.000000, -686.000000)" fill="#231F1F">
            <g id="Page-1-+-Page-1-Copy-+-Page-1-Copy-2-Mask" transform="translate(180.000000, 686.000000)">
                <g id="Group" transform="translate(1.000000, -14.000000)">
                    <path d="M7.7891592,31.9048024 C7.7891592,28.8668101 12.3443585,21.0803893 14.8366573,17.1674981 C17.3289561,21.0803893 21.8841554,28.8668101 21.8841554,31.9048024 C21.8841554,35.789067 18.7227111,38.9523005 14.8366573,38.9523005 C10.9506035,38.9523005 7.7891592,35.789067 7.7891592,31.9048024 Z M6,31.9048024 C6,36.7766829 9.96298763,40.7414597 14.8366573,40.7414597 C19.7103269,40.7414597 23.6733146,36.7766829 23.6733146,31.9048024 C23.6733146,27.3782297 16.4111174,16.278286 15.5827367,15.0276637 C15.2499531,14.5266991 14.4233615,14.5266991 14.0905779,15.0276637 C13.2621972,16.278286 6,27.3782297 6,31.9048024 Z" id="Page-1" transform="translate(14.836657, 27.696700) rotate(-30.000000) translate(-14.836657, -27.696700) "></path>
                    <path d="M28.9745051,55.208683 C28.9745051,52.1706906 33.5297045,44.3842698 36.0220032,40.4713786 C38.514302,44.3842698 43.0695013,52.1706906 43.0695013,55.208683 C43.0695013,59.0929476 39.908057,62.256181 36.0220032,62.256181 C32.1359494,62.256181 28.9745051,59.0929476 28.9745051,55.208683 Z M27.1853459,55.208683 C27.1853459,60.0805635 31.1483336,64.0453402 36.0220032,64.0453402 C40.8956729,64.0453402 44.8586605,60.0805635 44.8586605,55.208683 C44.8586605,50.6821102 37.5964633,39.5821665 36.7680826,38.3315442 C36.435299,37.8305796 35.6087074,37.8305796 35.2759238,38.3315442 C34.4475431,39.5821665 27.1853459,50.6821102 27.1853459,55.208683 Z" id="Page-1-Copy" transform="translate(36.022003, 51.000581) rotate(-30.000000) translate(-36.022003, -51.000581) "></path>
                    <path d="M44.8635146,20.2528622 C44.8635146,17.2148698 49.4187139,9.42844901 51.9110127,5.51555784 C54.4033114,9.42844901 58.9585108,17.2148698 58.9585108,20.2528622 C58.9585108,24.1371268 55.7970665,27.3003603 51.9110127,27.3003603 C48.0249589,27.3003603 44.8635146,24.1371268 44.8635146,20.2528622 Z M43.0743554,20.2528622 C43.0743554,25.1247427 47.037343,29.0895195 51.9110127,29.0895195 C56.7846823,29.0895195 60.74767,25.1247427 60.74767,20.2528622 C60.74767,15.7262894 53.4854728,4.62634571 52.6570921,3.37572343 C52.3243084,2.87475886 51.4977169,2.87475886 51.1649333,3.37572343 C50.3365526,4.62634571 43.0743554,15.7262894 43.0743554,20.2528622 Z" id="Page-1-Copy-2" transform="translate(51.911013, 16.044760) rotate(-30.000000) translate(-51.911013, -16.044760) "></path>
                </g>
            </g>
        </g>
    </g>
</svg>