<?xml version="1.0" encoding="UTF-8"?>
<svg width="36px" height="23px" viewBox="0 0 36 23" version="1.1" xmlns="http://www.w3.org/2000/svg" xmlns:xlink="http://www.w3.org/1999/xlink">
    <!-- Generator: Sketch 43.2 (39069) - http://www.bohemiancoding.com/sketch -->
    <title>Page 1</title>
    <desc>Created with Sketch.</desc>
    <defs>
        <polygon id="path-1" points="0 31.1817846 0 0.000656410256 38.608375 0.000656410256 38.608375 31.1817846"></polygon>
    </defs>
    <g id="nito-iot-web-admin" stroke="none" stroke-width="1" fill="none" fill-rule="evenodd">
        <g id="UC001_デバイス一覧_パターン１無" transform="translate(-120.000000, -422.000000)">
            <g id="Page-1" transform="translate(117.000000, 418.000000)">
                <mask id="mask-2" fill="white">
                    <use xlink:href="#path-1"></use>
                </mask>
                <g id="Clip-2"></g>
                <path d="M11.3125,11.5641026 C12.33625,11.5641026 13.347,11.7889231 14.317125,12.233641 C14.55275,12.3403077 14.82575,12.3288205 15.054875,12.1991795 C15.28075,12.0695385 15.431875,11.8381538 15.4595,11.5755897 C15.870625,7.82748718 18.977625,5 22.6875,5 C26.156875,5 29.17125,7.49107692 29.85375,10.9208205 C29.930125,11.3048205 30.264875,11.5805128 30.65,11.5805128 C30.719875,11.5854359 30.784875,11.5723077 30.8125,11.5641026 C34.84575,11.5641026 38.125,14.8921026 38.125,18.9831795 C38.125,23.0726154 34.84575,26.4022564 30.8125,26.4022564 L11.3125,26.4022564 C7.280875,26.4022564 4,23.0726154 4,18.9831795 C4,14.8921026 7.280875,11.5641026 11.3125,11.5641026" id="Fill-1" stroke="#000000" fill="#FFFFFF" mask="url(#mask-2)"></path>
            </g>
        </g>
    </g>
</svg>