<?xml version="1.0" encoding="UTF-8"?>
<svg width="44px" height="48px" viewBox="0 0 44 48" version="1.1" xmlns="http://www.w3.org/2000/svg" xmlns:xlink="http://www.w3.org/1999/xlink">
    <!-- Generator: Sketch 43.2 (39069) - http://www.bohemiancoding.com/sketch -->
    <title>Page 1</title>
    <desc>Created with Sketch.</desc>
    <defs>
        <polygon id="path-1" points="0 8.02882625 0 0.421394466 58 0.421394466 58 8.02882625 58 15.636258 0 15.636258 0 8.02882625"></polygon>
    </defs>
    <g id="nito-iot-web-admin" stroke="none" stroke-width="1" fill="none" fill-rule="evenodd" opacity="0.0980525362">
        <g id="UC001_デバイス一覧_パターン１無" transform="translate(-8.000000, -686.000000)">
            <g id="Page-1" transform="translate(8.000000, 686.000000)">
                <g transform="translate(-14.000000, -8.000000)">
                    <g id="Group-3" transform="translate(0.000000, 0.065562)">
                        <mask id="mask-2" fill="white">
                            <use xlink:href="#path-1"></use>
                        </mask>
                        <g id="Clip-2"></g>
                        <path d="M44.1304348,12.07333 C44.5490435,11.6317489 44.7961739,11.1296082 44.7961739,10.5517679 C44.7961739,6.09306119 30.6164348,5.96437186 29,5.96437186 C27.3835652,5.96437186 13.2038261,6.09306119 13.2038261,10.5517679 C13.2038261,11.1296082 13.4509565,11.6317489 13.8695652,12.07333 C6.46069565,10.9403592 2.52173913,9.14375526 2.52173913,8.02844775 C2.52173913,6.30249676 11.8673043,2.94395763 29,2.94395763 C46.1326957,2.94395763 55.4782609,6.30249676 55.4782609,8.02844775 C55.4782609,9.14375526 51.5393043,10.9403592 44.1304348,12.07333 M29,12.6133205 C21.3994783,12.6133205 16.9334783,11.3466138 15.8768696,10.5517679 C16.9309565,9.75439874 21.3994783,8.48769202 29,8.48769202 C36.6005217,8.48769202 41.0690435,9.75439874 42.1231304,10.5517679 C41.0665217,11.3466138 36.6005217,12.6133205 29,12.6133205 M29,0.42063747 C18.9685217,0.42063747 0,2.01032917 0,8.02844775 C0,14.0465663 18.9685217,15.636258 29,15.636258 C39.0289565,15.636258 58,14.0465663 58,8.02844775 C58,2.01032917 39.0289565,0.42063747 29,0.42063747" id="Fill-1" fill="#231F1F" mask="url(#mask-2)"></path>
                    </g>
                    <path d="M52.4554522,19.5127905 C51.7998,19.4875573 51.2021478,20.0426877 51.1365826,20.7088443 C51.0231043,21.8367684 44.0479739,24.7991462 29.0007565,24.7991462 C13.9510174,24.7991462 6.97588696,21.8367684 6.86493043,20.7113676 C6.86493043,20.0124079 6.30006087,19.4497075 5.60406087,19.4497075 C4.90806087,19.4497075 4.3431913,20.0124079 4.3431913,20.7113676 C4.3431913,25.939687 20.4722348,27.3224664 29.0007565,27.3224664 C37.5267565,27.3224664 53.6583217,25.939687 53.6583217,20.7113676 C53.6583217,20.0376411 53.1262348,19.5455937 52.4554522,19.5127905" id="Fill-4" fill="#231F1F"></path>
                    <path d="M42.0247826,33.3269591 C42.0247826,32.6305227 41.459913,32.065299 40.763913,32.065299 C40.1486087,32.065299 39.6366957,32.5043567 39.5257391,33.0872436 C38.8448696,33.6877938 35.1757391,34.7551583 29,34.7551583 C22.8242609,34.7551583 19.1551304,33.6877938 18.4742609,33.0872436 C18.3633043,32.5043567 17.8513913,32.065299 17.236087,32.065299 C16.540087,32.065299 15.9752174,32.6305227 15.9752174,33.3269591 C15.9752174,37.0892294 26.8262609,37.2784784 29,37.2784784 C31.1737391,37.2784784 42.0247826,37.0892294 42.0247826,33.3269591" id="Fill-6" fill="#231F1F"></path>
                    <path d="M34.5372348,42.6380104 L28.9994957,51.8657923 L23.476887,42.6607203 C23.1162783,42.0626934 22.3446261,41.8709211 21.7469739,42.2292326 C21.1493217,42.587544 20.9551478,43.3622033 21.3132348,43.9602302 L27.9176696,54.9669527 C28.1471478,55.3454508 28.5556696,55.5775962 28.9994957,55.5775962 C29.4433217,55.5775962 29.8543652,55.3454508 30.0813217,54.9669527 L36.6983652,43.9375203 C37.0564522,43.3394934 36.8648,42.5648342 36.2671478,42.2065227 C35.6694957,41.8456879 34.8953217,42.0399836 34.5372348,42.6380104" id="Fill-8" fill="#231F1F"></path>
                </g>
            </g>
        </g>
    </g>
</svg>