<?xml version="1.0" encoding="UTF-8"?>
<svg width="41px" height="34px" viewBox="0 0 41 34" version="1.1" xmlns="http://www.w3.org/2000/svg" xmlns:xlink="http://www.w3.org/1999/xlink">
    <!-- Generator: Sketch 43.2 (39069) - http://www.bohemiancoding.com/sketch -->
    <title>Page 1</title>
    <desc>Created with Sketch.</desc>
    <defs></defs>
    <g id="nito-iot-web-admin" stroke="none" stroke-width="1" fill="none" fill-rule="evenodd">
        <g id="UC001_デバイス一覧_パターン１無" transform="translate(-288.000000, -414.000000)" fill="#231F1F">
            <g id="Page-1" transform="translate(288.000000, 414.000000)">
                <path d="M25.0948276,4.25 C25.4850345,4.25 25.8017241,3.93266667 25.8017241,3.54166667 L25.8017241,0.708333333 C25.8017241,0.317333333 25.4850345,0 25.0948276,0 C24.7046207,0 24.387931,0.317333333 24.387931,0.708333333 L24.387931,3.54166667 C24.387931,3.93266667 24.7046207,4.25 25.0948276,4.25" id="Fill-1"></path>
                <path d="M39.9396552,14.875 L37.112069,14.875 C36.7218621,14.875 36.4051724,15.1923333 36.4051724,15.5833333 C36.4051724,15.9743333 36.7218621,16.2916667 37.112069,16.2916667 L39.9396552,16.2916667 C40.3298621,16.2916667 40.6465517,15.9743333 40.6465517,15.5833333 C40.6465517,15.1923333 40.3298621,14.875 39.9396552,14.875" id="Fill-3"></path>
                <path d="M1.4137931,25.2931667 C1.4137931,21.726 4.32762069,18.7113333 7.77586207,18.7113333 C8.66655172,18.7113333 9.54593103,18.9068333 10.3899655,19.2893333 C10.5949655,19.3828333 10.8338966,19.3715 11.0318276,19.2595833 C11.2283448,19.1476667 11.3598276,18.9465 11.3838621,18.72125 C11.7415517,15.4855833 14.4447241,13.0446667 17.6724138,13.0446667 C20.6908621,13.0446667 23.3134483,15.1951667 23.9072414,18.1574167 C23.9736897,18.4889167 24.264931,18.7255 24.6,18.7255 C24.6508966,18.7255 24.7145172,18.7184167 24.7413793,18.7113333 C28.1896207,18.7113333 31.1034483,21.726 31.1034483,25.2931667 C31.1034483,28.86175 28.1896207,31.875 24.7413793,31.875 L7.77586207,31.875 C4.32762069,31.875 1.4137931,28.86175 1.4137931,25.2931667 L1.4137931,25.2931667 Z M25.3691034,7.43608333 C29.1227241,7.43608333 32.1751034,10.4946667 32.1751034,14.2545 C32.1751034,16.2279167 31.3296552,18.0738333 29.8564828,19.3715 C28.5727586,18.1928333 26.944069,17.4094167 25.1570345,17.3074167 C24.3497586,14.433 21.9505517,12.2895833 19.057931,11.7611667 C20.0730345,9.19416667 22.5782759,7.43608333 25.3691034,7.43608333 L25.3691034,7.43608333 Z M24.7413793,33.2916667 C28.9558966,33.2916667 32.5172414,29.6295833 32.5172414,25.2931667 C32.5172414,23.4656667 31.8584138,21.7784167 30.8107931,20.4141667 C32.5752069,18.84875 33.5888966,16.6288333 33.5888966,14.2545 C33.5888966,9.71266667 29.9017241,6.01941667 25.3691034,6.01941667 C21.8572414,6.01941667 18.7087241,8.32008333 17.5932414,11.6350833 C13.9824138,11.6733333 10.9215517,14.195 10.1298276,17.6715 C9.36213793,17.42075 8.57324138,17.2946667 7.77586207,17.2946667 C3.56134483,17.2946667 0,20.9581667 0,25.2931667 C0,29.6295833 3.56134483,33.2916667 7.77586207,33.2916667 L24.7413793,33.2916667 Z" id="Fill-5"></path>
                <path d="M16.4511793,7.46243333 C16.589731,7.60126667 16.7706966,7.66926667 16.9516621,7.66926667 C17.1312138,7.66926667 17.3121793,7.60126667 17.450731,7.46243333 C17.7264207,7.18618333 17.7264207,6.7371 17.450731,6.46085 L15.4502138,4.45768333 C15.1745241,4.18143333 14.7277655,4.18143333 14.4506621,4.45768333 C14.1749724,4.73393333 14.1749724,5.18301667 14.4506621,5.45926667 L16.4511793,7.46243333 Z" id="Fill-7"></path>
                <path d="M33.9455966,7.669975 C34.1265621,7.669975 34.3075276,7.60055833 34.4460793,7.46314167 L36.4451828,5.45855833 C36.7208724,5.18230833 36.7208724,4.73464167 36.4451828,4.456975 C36.1694931,4.180725 35.7213207,4.180725 35.445631,4.456975 L33.4451138,6.46014167 C33.1694241,6.73780833 33.1694241,7.185475 33.4451138,7.46314167 C33.5836655,7.60055833 33.764631,7.669975 33.9455966,7.669975" id="Fill-9"></path>
                <path d="M34.2596,22.4737167 L36.2587034,24.4783 C36.3972552,24.6157167 36.5782207,24.6851333 36.7591862,24.6851333 C36.9401517,24.6851333 37.1211172,24.6157167 37.2582552,24.4783 C37.5339448,24.2006333 37.5339448,23.7529667 37.2582552,23.4767167 L35.2591517,21.4721333 C34.9834621,21.1958833 34.5352897,21.1958833 34.2596,21.4721333 C33.9839103,21.7483833 33.9839103,22.1974667 34.2596,22.4737167" id="Fill-11"></path>
            </g>
        </g>
    </g>
</svg>