<?xml version="1.0" encoding="UTF-8"?>
<svg width="37px" height="37px" viewBox="0 0 37 37" version="1.1" xmlns="http://www.w3.org/2000/svg" xmlns:xlink="http://www.w3.org/1999/xlink">
    <!-- Generator: Sketch 43.2 (39069) - http://www.bohemiancoding.com/sketch -->
    <title>Page 1</title>
    <desc>Created with Sketch.</desc>
    <defs></defs>
    <g id="nito-iot-web-admin" stroke="none" stroke-width="1" fill="none" fill-rule="evenodd">
        <g id="UC001_デバイス一覧_パターン１無" transform="translate(-33.000000, -416.000000)" fill="#231F1F">
            <g id="Page-1" transform="translate(33.000000, 416.000000)">
                <path d="M18.6987258,9.94643548 C23.3058226,9.94643548 27.0535645,13.6941774 27.0535645,18.3012742 C27.0535645,22.908371 23.3058226,26.6561129 18.6987258,26.6561129 C14.091629,26.6561129 10.3438871,22.908371 10.3438871,18.3012742 C10.3438871,13.6941774 14.091629,9.94643548 18.6987258,9.94643548 M18.6987258,27.8496613 C23.9634677,27.8496613 28.2471129,23.5660161 28.2471129,18.3012742 C28.2471129,13.0365323 23.9634677,8.7528871 18.6987258,8.7528871 C13.4339839,8.7528871 9.15033871,13.0365323 9.15033871,18.3012742 C9.15033871,23.5660161 13.4339839,27.8496613 18.6987258,27.8496613" id="Fill-1"></path>
                <path d="M17.9032258,5.96774194 C18.2326452,5.96774194 18.5,5.7003871 18.5,5.37096774 L18.5,0.596774194 C18.5,0.267354839 18.2326452,0 17.9032258,0 C17.5738065,0 17.3064516,0.267354839 17.3064516,0.596774194 L17.3064516,5.37096774 C17.3064516,5.7003871 17.5738065,5.96774194 17.9032258,5.96774194" id="Fill-3"></path>
                <path d="M18.5,36.4032258 L18.5,31.6290323 C18.5,31.2996129 18.2326452,31.0322581 17.9032258,31.0322581 C17.5738065,31.0322581 17.3064516,31.2996129 17.3064516,31.6290323 L17.3064516,36.4032258 C17.3064516,36.7326452 17.5738065,37 17.9032258,37 C18.2326452,37 18.5,36.7326452 18.5,36.4032258" id="Fill-5"></path>
                <path d="M5.96774194,19.0967742 C5.96774194,18.7673548 5.7003871,18.5 5.37096774,18.5 L0.596774194,18.5 C0.267354839,18.5 0,18.7673548 0,19.0967742 C0,19.4261935 0.267354839,19.6935484 0.596774194,19.6935484 L5.37096774,19.6935484 C5.7003871,19.6935484 5.96774194,19.4261935 5.96774194,19.0967742" id="Fill-7"></path>
                <path d="M36.4032258,18.5 L31.6290323,18.5 C31.2996129,18.5 31.0322581,18.7673548 31.0322581,19.0967742 C31.0322581,19.4261935 31.2996129,19.6935484 31.6290323,19.6935484 L36.4032258,19.6935484 C36.7326452,19.6935484 37,19.4261935 37,19.0967742 C37,18.7673548 36.7326452,18.5 36.4032258,18.5" id="Fill-9"></path>
                <path d="M6.66011935,31.3825645 L10.0366677,28.0060161 C10.2694097,27.7732742 10.2694097,27.3961129 10.0366677,27.1621774 C9.80273226,26.9294355 9.42557097,26.9294355 9.19282903,27.1621774 L5.81628065,30.5387258 C5.58353871,30.7714677 5.58353871,31.1498226 5.81628065,31.3825645 C5.93324839,31.4995323 6.08602258,31.5568226 6.23760323,31.5568226 C6.39037742,31.5568226 6.54315161,31.4995323 6.66011935,31.3825645" id="Fill-11"></path>
                <path d="M28.181229,9.61427097 C28.3340032,9.61427097 28.4867774,9.5557871 28.6037452,9.4400129 L31.9791,6.06346452 C32.2130355,5.83072258 32.2130355,5.45236774 31.9791,5.21962581 C31.7463581,4.98688387 31.3680032,4.98688387 31.1352613,5.21962581 L27.7587129,8.59498065 C27.525971,8.82891613 27.525971,9.20607742 27.7587129,9.4400129 C27.8756806,9.5557871 28.0284548,9.61427097 28.181229,9.61427097" id="Fill-13"></path>
                <path d="M28.6031484,27.1625355 C28.3704065,26.9297935 27.9920516,26.9297935 27.7593097,27.1625355 C27.5265677,27.3952774 27.5265677,27.7736323 27.7593097,28.0063742 L31.1358581,31.3829226 C31.2516323,31.4986968 31.4044065,31.5571806 31.5571806,31.5571806 C31.7099548,31.5571806 31.862729,31.4986968 31.9796968,31.3829226 C32.2124387,31.1489871 32.2124387,30.7718258 31.9796968,30.5390839 L28.6031484,27.1625355 Z" id="Fill-15"></path>
                <path d="M9.19235161,9.43941613 C9.30931935,9.55638387 9.46209355,9.61367419 9.61486774,9.61367419 C9.76644839,9.61367419 9.91922258,9.55638387 10.0361903,9.43941613 C10.2689323,9.20667419 10.2689323,8.82831935 10.0361903,8.59557742 L6.65964194,5.21902903 C6.4269,4.9862871 6.04973871,4.9862871 5.81580323,5.21902903 C5.58306129,5.45296452 5.58306129,5.83012581 5.81580323,6.06286774 L9.19235161,9.43941613 Z" id="Fill-17"></path>
            </g>
        </g>
    </g>
</svg>