<?xml version="1.0" encoding="UTF-8"?>
<svg width="65px" height="63px" viewBox="0 0 65 63" version="1.1" xmlns="http://www.w3.org/2000/svg" xmlns:xlink="http://www.w3.org/1999/xlink">
    <!-- Generator: Sketch 43.2 (39069) - http://www.bohemiancoding.com/sketch -->
    <title>Page 1</title>
    <desc>Created with Sketch.</desc>
    <defs></defs>
    <g id="nito-iot-web-admin" stroke="none" stroke-width="1" fill="none" fill-rule="evenodd" opacity="0.0965240036">
        <g id="UC001_デバイス一覧_パターン１無" transform="translate(-93.000000, -686.000000)" fill="#231F1F">
            <g id="Page-1" transform="translate(93.000000, 686.000000)">
                <g transform="translate(-7.000000, -7.000000)">
                    <path d="M69.8839278,20.4465788 L55.3197654,35.0411331 L33.8750993,56.5327009 L23.011033,67.4172859 C22.5922757,67.836917 22.5922757,68.5169346 23.011033,68.9387176 C23.2214853,69.1474572 23.4963619,69.2529029 23.7712384,69.2529029 C24.046115,69.2529029 24.3209915,69.1474572 24.5292964,68.9387176 L36.6303072,56.812455 C36.6410446,56.8038472 36.6496345,56.7930874 36.6582244,56.7844796 L71.4021912,21.9680105 C71.8209485,21.5483794 71.8209485,20.8662099 71.4021912,20.4465788 C70.983434,20.0269477 70.302685,20.0269477 69.8839278,20.4465788" id="Fill-1"></path>
                    <path d="M17.1797846,2.15195433 C25.4690307,2.15195433 32.2120961,8.90909091 32.2120961,17.2156346 C32.2120961,25.5221783 25.4690307,32.2793149 17.1797846,32.2793149 C8.89053853,32.2793149 2.14747307,25.5221783 2.14747307,17.2156346 C2.14747307,8.90909091 8.89053853,2.15195433 17.1797846,2.15195433 M17.1797846,34.4312692 C26.6522883,34.4312692 34.3595692,26.7079051 34.3595692,17.2156346 C34.3595692,7.72336408 26.6522883,0 17.1797846,0 C7.70728086,0 0,7.72336408 0,17.2156346 C0,26.7079051 7.70728086,34.4312692 17.1797846,34.4312692" id="Fill-3"></path>
                    <path d="M49.1666108,32.4716996 L37.0205031,20.3023979 C36.6017458,19.8806148 36.6017458,19.2005973 37.0205031,18.7788142 C37.4392603,18.3591831 38.1200093,18.3591831 38.5387665,18.7788142 L50.6848742,30.9502679 C51.1036315,31.369899 51.1036315,32.0520685 50.6848742,32.4716996 C50.4744219,32.6825911 50.1995453,32.7858849 49.9268162,32.7858849 C49.6497922,32.7858849 49.3770631,32.6825911 49.1666108,32.4716996" id="Fill-5"></path>
                    <path d="M43.529494,42.6934827 L31.7377193,30.8771014 C31.3168146,30.4574704 31.3168146,29.7753008 31.7377193,29.3556697 C32.1564766,28.9360386 32.835078,28.9360386 33.2559828,29.3556697 L45.0477574,41.1720509 C45.4665147,41.591682 45.4665147,42.2738516 45.0477574,42.6934827 C44.8373051,42.9043742 44.5624285,43.007668 44.2896994,43.007668 C44.0126754,43.007668 43.7399463,42.9043742 43.529494,42.6934827" id="Fill-7"></path>
                    <path d="M30.52182,42.6934827 L24.2426088,36.4033202 C23.8238515,35.9815371 23.8238515,35.3015195 24.2426088,34.8818884 C24.661366,34.4601054 25.342115,34.4601054 25.7608722,34.8818884 L32.0400835,41.1720509 C32.4588408,41.591682 32.4588408,42.2738516 32.0400835,42.6934827 C31.8296312,42.9043742 31.5547546,43.007668 31.2820255,43.007668 C31.0050015,43.007668 30.7322724,42.9043742 30.52182,42.6934827" id="Fill-9"></path>
                    <path d="M23.3969339,47.3003865 L14.2658784,38.1502767 C13.8471211,37.7306456 13.8471211,37.050628 14.2658784,36.628845 C14.6846356,36.2092139 15.3653846,36.2092139 15.7841418,36.628845 L24.9151973,45.7789548 C25.3339546,46.1985859 25.3339546,46.8807554 24.9151973,47.3003865 C24.704745,47.511278 24.4298684,47.6145718 24.1571394,47.6145718 C23.8801153,47.6145718 23.6073862,47.511278 23.3969339,47.3003865" id="Fill-11"></path>
                </g>
            </g>
        </g>
    </g>
</svg>